<svg xmlns="http://www.w3.org/2000/svg" viewBox="0 0 1368.04 1474.49">
  <defs>
    <style>
      .cls-1 {
        opacity: 0.74;
      }

      .cls-2, .cls-3, .cls-4 {
        fill: #58d573;
      }

      .cls-2 {
        opacity: 0.49;
      }

      .cls-3 {
        opacity: 0.65;
      }

      .cls-4 {
        opacity: 0.72;
      }
    </style>
  </defs>
  <title>chef</title>
  <g id="Layer_1" data-name="Layer 1" class="cls-1">
    <path class="cls-2" d="M416-398.86q-3.71,4.35-7.64,9.24t-9.95,13a84.87,84.87,0,0,0-9.53,16.12q-3.53,8-3.25,13.72.33,7-23.78,13t-58.74,7.65q-34.62,1.67-59.2-2T219-338.77q-.37-7.55-7.94-18.54a136.67,136.67,0,0,0-14-17.59q-6.45-6.62-12.73-12.31Q165.79-403.55,164.6-428a56.29,56.29,0,0,1,15.07-42.08,56.3,56.3,0,0,1,40.45-19,63.9,63.9,0,0,1,12.56.7,65,65,0,0,0-3,23.9Q231-436.69,249.06-419q-1.19-14-1.94-29.65-1.17-24.21,12.6-42t34.59-18.75q20.82-1,36.22,15.35t16.57,40.57q.76,15.87.9,29.7,16.31-19.31,15-47.17a65,65,0,0,0-5.3-23.49,63.28,63.28,0,0,1,12.43-1.9,56.29,56.29,0,0,1,42.09,15.07,56.26,56.26,0,0,1,19,40.45A55.59,55.59,0,0,1,416-398.86ZM303.78-309.44q34.5-1.67,58.74-7.78t23.91-12.89l3.2,66.65q.33,6.76-23.91,12.89T307-242.79q-34.49,1.66-59.08-2.12T223-255.45l-3.2-66.66q.33,7,24.91,10.68T303.78-309.44Z" transform="translate(339.75 566.51)"/>
    <path class="cls-2" d="M761.88,619.67q-3.74,4.3-7.73,9.16t-10.07,12.91a85.08,85.08,0,0,0-9.68,16q-3.6,8-3.38,13.69.27,7-23.9,12.8t-58.81,7.1q-34.63,1.33-59.18-2.54t-24.81-10.91q-.3-7.56-7.76-18.62a135.35,135.35,0,0,0-13.86-17.72q-6.39-6.66-12.61-12.43-18.37-16.5-19.32-41a58.27,58.27,0,0,1,56.09-60.59,63.39,63.39,0,0,1,12.55.81,64.56,64.56,0,0,0-3.25,23.87q1.07,27.87,19,45.7-1.07-14.06-1.67-29.68-.93-24.22,13-41.84T641.23,508q20.84-.81,36.08,15.69t16.18,40.72q.62,15.89.63,29.71,16.47-19.15,15.4-47a64.74,64.74,0,0,0-5.09-23.54,64,64,0,0,1,12.45-1.78,58.27,58.27,0,0,1,60.6,56.09A55.6,55.6,0,0,1,761.88,619.67ZM648.83,708q34.5-1.34,58.8-7.23t24-12.67l2.58,66.68q.25,6.78-24,12.67t-58.81,7.23q-34.51,1.34-59-2.67t-24.81-10.78L565,694.58q.27,7,24.81,10.91T648.83,708Z" transform="translate(339.75 566.51)"/>
    <path class="cls-2" d="M629.13-15.93q-3.61,4.42-7.47,9.38T612,6.64a84.8,84.8,0,0,0-9.23,16.3q-3.37,8.05-3,13.78.46,7-23.52,13.47T517.64,59q-34.59,2.32-59.23-.86T433.3,47.89q-.51-7.55-8.29-18.39a135.73,135.73,0,0,0-14.35-17.32Q404.09,5.7,397.7.12q-18.84-16-20.48-40.43a56.3,56.3,0,0,1,14.27-42.36,56.28,56.28,0,0,1,40.08-19.8,63.29,63.29,0,0,1,12.57.46,64.94,64.94,0,0,0-2.57,24q1.88,27.83,20.27,45.14-1.45-14-2.51-29.62-1.62-24.18,11.8-42.19t34.23-19.41q20.8-1.39,36.51,14.66T559.2-69.24q1.06,15.87,1.47,29.69Q576.6-59.17,574.73-87A64.68,64.68,0,0,0,569-110.38a63.88,63.88,0,0,1,12.4-2.14,56.26,56.26,0,0,1,42.36,14.27,56.25,56.25,0,0,1,19.8,40.08A55.64,55.64,0,0,1,629.13-15.93ZM518.63,75.6q34.46-2.31,58.57-8.89t23.67-13.34L605.33,120q.45,6.76-23.66,13.34t-58.58,8.89q-34.46,2.32-59.1-1t-25.11-10.08l-4.46-66.58q.46,7,25.11,10.21T518.63,75.6Z" transform="translate(339.75 566.51)"/>
    <path class="cls-2" d="M91.05-37q-3.51,4.51-7.23,9.57T74.46-14A85.1,85.1,0,0,0,65.64,2.54Q62.48,10.68,63,16.4q.64,7-23.18,14.05T-18.53,40.68q-34.51,3.2-59.23.63t-25.36-9.57q-.69-7.51-8.74-18.17A136.18,136.18,0,0,0-126.65-3.38q-6.73-6.31-13.26-11.74Q-159.14-30.61-161.39-55a56.24,56.24,0,0,1,13.2-42.71,56.24,56.24,0,0,1,39.56-20.81,64.07,64.07,0,0,1,12.58.15,64.79,64.79,0,0,0-2,24q2.56,27.78,21.4,44.62-1.81-14-3.25-29.54-2.23-24.14,10.73-42.48T-35.41-142Q-14.65-144,1.46-128.31T19.8-88.51Q21.26-72.67,22-58.87q15.43-20,12.86-47.79a64.83,64.83,0,0,0-6.33-23.23,63.52,63.52,0,0,1,12.34-2.45,56.25,56.25,0,0,1,42.71,13.2,56.3,56.3,0,0,1,20.8,39.57A55.62,55.62,0,0,1,91.05-37ZM-17.12,57.31q34.39-3.18,58.33-10.37T64.53,33l6.14,66.44q.63,6.75-23.32,13.94T-11,123.75q-34.39,3.18-59.12.49t-25.34-9.44l-6.14-66.44q.64,7,25.36,9.56T-17.12,57.31Z" transform="translate(339.75 566.51)"/>
    <path class="cls-2" d="M97,732.16q-3.47,4.55-7.14,9.63t-9.23,13.52A84.56,84.56,0,0,0,72,771.91q-3.1,8.18-2.52,13.88.72,7-23,14.27t-58.25,10.78Q-46.3,814.35-71,812t-25.44-9.33q-.77-7.52-8.92-18.09a135.91,135.91,0,0,0-14.94-16.82q-6.8-6.24-13.37-11.6-19.38-15.33-21.86-39.7a56.3,56.3,0,0,1,12.8-42.83,56.28,56.28,0,0,1,39.37-21.17,63,63,0,0,1,12.58,0,64.83,64.83,0,0,0-1.74,24q2.82,27.75,21.81,44.41-1.93-14-3.53-29.51-2.44-24.1,10.34-42.58t33.54-20.57q20.75-2.12,37,13.39t18.7,39.62q1.62,15.83,2.49,29.62Q43,690.75,40.2,663a64.71,64.71,0,0,0-6.55-23.18A63.74,63.74,0,0,1,46,637.27a56.25,56.25,0,0,1,42.83,12.8A56.27,56.27,0,0,1,110,689.44Q112.42,713.56,97,732.16ZM-10.26,827.45Q24.11,824,48,816.54t23.19-14.15l6.76,66.38q.69,6.75-23.19,14.16T-3.5,893.83q-34.36,3.51-59.11,1T-88,885.67l-6.76-66.38q.7,7,25.44,9.33T-10.26,827.45Z" transform="translate(339.75 566.51)"/>
    <path class="cls-3" d="M603.2,340.42c-.88,1.1-1.79,2.25-2.72,3.48s-2.11,2.85-3.53,4.88a31.08,31.08,0,0,0-3.34,6,11.49,11.49,0,0,0-1.06,5.08q.19,2.58-8.61,5a133.41,133.41,0,0,1-43.31,3.27q-9.07-1.1-9.27-3.68-.21-2.78-3.11-6.73a48.64,48.64,0,0,0-5.33-6.33q-2.43-2.37-4.8-4.4a21.43,21.43,0,0,1,12.15-37.84,23.36,23.36,0,0,1,4.62.13,23.9,23.9,0,0,0-.87,8.82q.76,10.23,7.59,16.54c-.39-3.43-.72-7.06-1-10.88a22.6,22.6,0,0,1,4.21-15.56,16.69,16.69,0,0,1,26-2A22.61,22.61,0,0,1,577.31,321q.44,5.84.63,10.91,5.8-7.26,5-17.49a23.78,23.78,0,0,0-2.19-8.59,24.11,24.11,0,0,1,4.56-.82,21.42,21.42,0,0,1,17.86,35.38Zm-40.37,34A111.89,111.89,0,0,0,584.35,371q8.85-2.49,8.66-5l1.84,24.47q.2,2.49-8.66,5a130.31,130.31,0,0,1-43.26,3.27q-9.07-1.16-9.27-3.63l-1.84-24.48q.2,2.58,9.27,3.68A114,114,0,0,0,562.83,374.43Z" transform="translate(339.75 566.51)"/>
    <path class="cls-3" d="M416,628q-1.32,1.63-2.72,3.47t-3.53,4.88a31.62,31.62,0,0,0-3.34,6,11.52,11.52,0,0,0-1.06,5.08q.2,2.58-8.61,5a133.72,133.72,0,0,1-43.31,3.26q-9.07-1.1-9.27-3.68c-.14-1.84-1.17-4.09-3.1-6.73a50,50,0,0,0-5.34-6.33c-1.62-1.58-3.22-3-4.8-4.4a21.44,21.44,0,0,1,12.15-37.84,23.37,23.37,0,0,1,4.62.14,23.84,23.84,0,0,0-.87,8.81q.76,10.23,7.59,16.54-.57-5.15-1-10.88a22.61,22.61,0,0,1,4.21-15.56,16.69,16.69,0,0,1,26-2,22.58,22.58,0,0,1,6.49,14.75q.45,5.83.63,10.92,5.81-7.28,5-17.5a23.87,23.87,0,0,0-2.18-8.58,23.29,23.29,0,0,1,4.55-.83,21.43,21.43,0,0,1,23,19.8A20.48,20.48,0,0,1,416,628Zm-40.37,34a111.76,111.76,0,0,0,21.52-3.45q8.85-2.49,8.66-5L407.65,678q.18,2.47-8.67,5a129.9,129.9,0,0,1-43.26,3.26q-9.08-1.14-9.26-3.63l-1.85-24.48q.19,2.58,9.27,3.68A113.21,113.21,0,0,0,375.62,662Z" transform="translate(339.75 566.51)"/>
    <path class="cls-3" d="M292.67,157.35q-1.32,1.64-2.72,3.47c-.94,1.22-2.11,2.85-3.53,4.88a31.08,31.08,0,0,0-3.34,6A11.52,11.52,0,0,0,282,176.8q.19,2.58-8.61,5a114.64,114.64,0,0,1-21.52,3.4,113.69,113.69,0,0,1-21.79-.14q-9.07-1.09-9.27-3.68c-.14-1.84-1.17-4.09-3.1-6.73a48.62,48.62,0,0,0-5.34-6.33c-1.62-1.58-3.22-3-4.8-4.4a21.44,21.44,0,0,1,12.15-37.84,23.37,23.37,0,0,1,4.62.14,23.84,23.84,0,0,0-.87,8.81q.76,10.23,7.59,16.54c-.39-3.43-.72-7.06-1-10.88a22.6,22.6,0,0,1,4.21-15.56,16.69,16.69,0,0,1,26-2A22.58,22.58,0,0,1,266.78,138q.45,5.84.63,10.91,5.8-7.26,5-17.49a23.67,23.67,0,0,0-2.19-8.58,23.39,23.39,0,0,1,4.56-.83,21.43,21.43,0,0,1,17.86,35.39Zm-40.37,34a111.89,111.89,0,0,0,21.52-3.45q8.85-2.49,8.66-5l1.84,24.48q.19,2.47-8.66,5a111.76,111.76,0,0,1-21.52,3.45,111.19,111.19,0,0,1-21.74-.19q-9.08-1.14-9.26-3.63l-1.85-24.48q.19,2.58,9.27,3.68A113.21,113.21,0,0,0,252.3,191.35Z" transform="translate(339.75 566.51)"/>
    <path class="cls-3" d="M790.65,59q-1.32,1.63-2.72,3.48c-.94,1.22-2.11,2.85-3.53,4.88a30.79,30.79,0,0,0-3.34,6A11.35,11.35,0,0,0,780,78.41q.19,2.58-8.61,5a113.81,113.81,0,0,1-21.53,3.4,113.68,113.68,0,0,1-21.78-.13Q719,85.6,718.81,83c-.14-1.85-1.18-4.09-3.11-6.74A49.15,49.15,0,0,0,710.37,70q-2.43-2.37-4.8-4.4a20.63,20.63,0,0,1-7.66-14.81,21.43,21.43,0,0,1,19.81-23,23.36,23.36,0,0,1,4.62.13,23.9,23.9,0,0,0-.87,8.82q.76,10.23,7.59,16.54c-.39-3.43-.72-7.06-1-10.88a22.55,22.55,0,0,1,4.21-15.56,16.69,16.69,0,0,1,26-2,22.61,22.61,0,0,1,6.49,14.75c.29,3.89.5,7.52.63,10.91q5.8-7.26,5-17.49a23.78,23.78,0,0,0-2.19-8.59,23.34,23.34,0,0,1,4.56-.82,21.45,21.45,0,0,1,23,19.8A20.5,20.5,0,0,1,790.65,59ZM750.28,93a111.89,111.89,0,0,0,21.52-3.45q8.85-2.51,8.66-5L782.3,109q.19,2.49-8.66,5a110.23,110.23,0,0,1-21.52,3.45,109.64,109.64,0,0,1-21.74-.19q-9.07-1.14-9.27-3.62l-1.84-24.48q.19,2.58,9.27,3.68A114,114,0,0,0,750.28,93Z" transform="translate(339.75 566.51)"/>
    <path class="cls-3" d="M938.76,593.51c-.88,1.09-1.78,2.25-2.72,3.47s-2.11,2.85-3.52,4.88a31.15,31.15,0,0,0-3.35,6,11.66,11.66,0,0,0-1.06,5.08q.2,2.6-8.61,5a133.72,133.72,0,0,1-43.31,3.26q-9.08-1.1-9.27-3.67-.21-2.77-3.1-6.74a50.88,50.88,0,0,0-5.33-6.33c-1.63-1.58-3.23-3-4.81-4.4a21.43,21.43,0,0,1,12.15-37.83,23.44,23.44,0,0,1,4.63.13,23.65,23.65,0,0,0-.88,8.81q.78,10.23,7.6,16.55c-.39-3.44-.73-7.06-1-10.89a22.67,22.67,0,0,1,4.21-15.56,16.69,16.69,0,0,1,26-2,22.66,22.66,0,0,1,6.5,14.75q.43,5.83.63,10.92,5.79-7.28,5-17.5a23.72,23.72,0,0,0-2.18-8.58,23.43,23.43,0,0,1,4.55-.83,21.43,21.43,0,0,1,23,19.81A20.44,20.44,0,0,1,938.76,593.51Zm-40.37,34a110.23,110.23,0,0,0,21.52-3.45q8.85-2.49,8.66-5l1.85,24.48q.18,2.49-8.66,5a130,130,0,0,1-43.27,3.26q-9.07-1.14-9.26-3.63l-1.85-24.47q.2,2.58,9.27,3.67A113.22,113.22,0,0,0,898.39,627.51Z" transform="translate(339.75 566.51)"/>
    <path class="cls-4" d="M428.29,484.25c-.51.63-1,1.3-1.57,2s-1.23,1.65-2.05,2.83a18.27,18.27,0,0,0-1.94,3.49,6.7,6.7,0,0,0-.61,2.95q.11,1.5-5,2.91A77.67,77.67,0,0,1,392,500.33q-5.26-.63-5.37-2.13a8.15,8.15,0,0,0-1.8-3.9,28.42,28.42,0,0,0-3.09-3.67c-.95-.92-1.87-1.77-2.79-2.55A12.42,12.42,0,0,1,386,466.14a13.51,13.51,0,0,1,2.68.07,13.74,13.74,0,0,0-.51,5.11,14,14,0,0,0,4.4,9.6c-.22-2-.42-4.1-.58-6.31a13.11,13.11,0,0,1,2.44-9,9.66,9.66,0,0,1,15.08-1.13,13.09,13.09,0,0,1,3.76,8.55c.17,2.26.3,4.36.37,6.33a14,14,0,0,0,2.91-10.14,13.73,13.73,0,0,0-1.26-5,12.93,12.93,0,0,1,2.64-.48,12.43,12.43,0,0,1,13.35,11.48A11.87,11.87,0,0,1,428.29,484.25ZM404.89,504a64.17,64.17,0,0,0,12.47-2q5.13-1.44,5-2.88l1.07,14.19q.1,1.44-5,2.89a75.32,75.32,0,0,1-25.08,1.89c-3.51-.44-5.3-1.15-5.37-2.11l-1.07-14.19q.1,1.5,5.37,2.13A65.25,65.25,0,0,0,404.89,504Z" transform="translate(339.75 566.51)"/>
    <path class="cls-4" d="M234.55,647.92c-.51.63-1,1.3-1.57,2s-1.23,1.65-2,2.83a18.27,18.27,0,0,0-1.94,3.49,6.73,6.73,0,0,0-.61,3q.1,1.5-5,2.91A77.67,77.67,0,0,1,198.27,664c-3.5-.42-5.3-1.13-5.37-2.13a8.15,8.15,0,0,0-1.8-3.9A28.42,28.42,0,0,0,188,654.3c-.95-.92-1.87-1.77-2.79-2.55a12.42,12.42,0,0,1,7.05-21.94,13.51,13.51,0,0,1,2.68.07,13.74,13.74,0,0,0-.51,5.11,14,14,0,0,0,4.4,9.6c-.22-2-.42-4.1-.58-6.31a13.11,13.11,0,0,1,2.44-9,9.68,9.68,0,0,1,15.08-1.13,13,13,0,0,1,3.76,8.55c.17,2.26.3,4.36.37,6.33a15,15,0,0,0,1.65-15.12,12.93,12.93,0,0,1,2.64-.48,12.42,12.42,0,0,1,10.35,20.52Zm-23.4,19.71a64.17,64.17,0,0,0,12.47-2q5.13-1.44,5-2.88l1.07,14.19q.1,1.44-5,2.89a75.32,75.32,0,0,1-25.08,1.89c-3.51-.44-5.3-1.15-5.37-2.11l-1.07-14.19q.11,1.5,5.37,2.13A65.25,65.25,0,0,0,211.15,667.63Z" transform="translate(339.75 566.51)"/>
    <path class="cls-4" d="M278.2,826.43c-.51.63-1,1.3-1.58,2s-1.22,1.65-2.05,2.83a18.2,18.2,0,0,0-1.93,3.49,6.59,6.59,0,0,0-.62,3c.08,1-1.59,2-5,2.91a66.47,66.47,0,0,1-12.48,2,65.54,65.54,0,0,1-12.64-.08q-5.25-.63-5.37-2.13a8.15,8.15,0,0,0-1.8-3.9,28.42,28.42,0,0,0-3.09-3.67q-1.41-1.38-2.79-2.55a12.42,12.42,0,0,1,7-21.94,13.51,13.51,0,0,1,2.68.07,13.74,13.74,0,0,0-.51,5.11,14,14,0,0,0,4.41,9.6c-.23-2-.42-4.1-.59-6.32a13.09,13.09,0,0,1,2.44-9,9.66,9.66,0,0,1,15.08-1.13,13.1,13.1,0,0,1,3.77,8.55q.26,3.38.36,6.33a14,14,0,0,0,2.92-10.15,13.73,13.73,0,0,0-1.27-5,12.93,12.93,0,0,1,2.64-.48,12.43,12.43,0,0,1,10.36,20.52Zm-23.41,19.71a64.41,64.41,0,0,0,12.48-2q5.13-1.44,5-2.88l1.07,14.19c.07,1-1.6,1.92-5,2.89a76,76,0,0,1-25.08,1.89q-5.26-.68-5.37-2.11l-1.07-14.19q.1,1.5,5.37,2.13A66.06,66.06,0,0,0,254.79,846.14Z" transform="translate(339.75 566.51)"/>
    <path class="cls-4" d="M738.74,428.32c-.51.63-1,1.31-1.57,2s-1.23,1.65-2,2.83a18,18,0,0,0-1.94,3.49,6.69,6.69,0,0,0-.61,2.94q.1,1.5-5,2.92a77.67,77.67,0,0,1-25.12,1.89c-3.5-.42-5.3-1.14-5.37-2.13a8.18,8.18,0,0,0-1.8-3.91,29.13,29.13,0,0,0-3.09-3.67c-1-.91-1.87-1.76-2.79-2.55a12.42,12.42,0,0,1,7.05-21.94,13.54,13.54,0,0,1,2.68.08,13.72,13.72,0,0,0-.51,5.11A14,14,0,0,0,703,425c-.22-2-.42-4.09-.58-6.31a13.08,13.08,0,0,1,2.44-9A9.67,9.67,0,0,1,720,408.52a13.09,13.09,0,0,1,3.76,8.56c.17,2.25.3,4.36.37,6.32a15,15,0,0,0,1.65-15.12,14.45,14.45,0,0,1,2.64-.48,12.43,12.43,0,0,1,13.35,11.49A11.86,11.86,0,0,1,738.74,428.32ZM715.34,448a64.94,64.94,0,0,0,12.47-2q5.13-1.46,5-2.89l1.07,14.19c.07,1-1.61,1.93-5,2.89a64.94,64.94,0,0,1-12.47,2,64.2,64.2,0,0,1-12.61-.11q-5.26-.66-5.37-2.1l-1.07-14.2q.1,1.5,5.37,2.14A66.06,66.06,0,0,0,715.34,448Z" transform="translate(339.75 566.51)"/>
    <path class="cls-4" d="M444.29,254.13c-.51.63-1,1.3-1.57,2s-1.22,1.65-2.05,2.83a18.83,18.83,0,0,0-1.94,3.49,6.73,6.73,0,0,0-.61,3c.08,1-1.59,2-5,2.91a65.66,65.66,0,0,1-12.48,2,66.44,66.44,0,0,1-12.64-.07q-5.25-.64-5.37-2.14a8.15,8.15,0,0,0-1.8-3.9,28.42,28.42,0,0,0-3.09-3.67q-1.41-1.38-2.79-2.55A12.42,12.42,0,0,1,402,236a13.51,13.51,0,0,1,2.68.07,13.77,13.77,0,0,0-.51,5.12,14,14,0,0,0,4.4,9.59c-.22-2-.42-4.1-.58-6.31a13.07,13.07,0,0,1,2.44-9,9.67,9.67,0,0,1,15.08-1.14,13.1,13.1,0,0,1,3.77,8.55q.25,3.39.36,6.33a15,15,0,0,0,1.65-15.12,12.93,12.93,0,0,1,2.64-.48,12.42,12.42,0,0,1,10.35,20.52Zm-23.4,19.71a63.41,63.41,0,0,0,12.47-2c3.43-1,5.1-1.92,5-2.88l1.07,14.19c.07,1-1.6,1.92-5,2.89A64.94,64.94,0,0,1,422,288a64.2,64.2,0,0,1-12.61-.11c-3.51-.44-5.3-1.15-5.37-2.11l-1.07-14.19q.1,1.5,5.37,2.13A65.25,65.25,0,0,0,420.89,273.84Z" transform="translate(339.75 566.51)"/>
    <path class="cls-4" d="M77.59,225.6c-.51.63-1,1.31-1.57,2s-1.23,1.65-2,2.83A18,18,0,0,0,72,233.94a6.69,6.69,0,0,0-.61,2.94c.07,1-1.59,2-5,2.92a66.21,66.21,0,0,1-12.47,2,66.35,66.35,0,0,1-12.64-.08c-3.51-.42-5.3-1.14-5.37-2.13a8.18,8.18,0,0,0-1.8-3.91A29.13,29.13,0,0,0,31.05,232c-.95-.91-1.87-1.76-2.79-2.55a12.43,12.43,0,0,1,7-21.94,13.64,13.64,0,0,1,2.69.08,13.72,13.72,0,0,0-.51,5.11,14,14,0,0,0,4.4,9.59c-.22-2-.42-4.09-.58-6.31a13.08,13.08,0,0,1,2.44-9,9.67,9.67,0,0,1,15.08-1.14,13.13,13.13,0,0,1,3.76,8.56c.17,2.25.3,4.36.37,6.32a15.11,15.11,0,0,0,1.65-15.12,14.45,14.45,0,0,1,2.64-.48,12.43,12.43,0,0,1,13.35,11.49A11.86,11.86,0,0,1,77.59,225.6Zm-23.4,19.72a64.94,64.94,0,0,0,12.47-2q5.13-1.45,5-2.89l1.07,14.19c.07,1-1.61,1.93-5,2.89a64.94,64.94,0,0,1-12.47,2,64.2,64.2,0,0,1-12.61-.11q-5.26-.66-5.37-2.1l-1.07-14.2q.1,1.5,5.37,2.14A66.06,66.06,0,0,0,54.19,245.32Z" transform="translate(339.75 566.51)"/>
    <path class="cls-4" d="M948.79,64.09c-.51.63-1,1.31-1.58,2s-1.22,1.66-2,2.84a18,18,0,0,0-1.94,3.49,6.69,6.69,0,0,0-.61,2.94c.07,1-1.59,2-5,2.92a77.64,77.64,0,0,1-25.11,1.89q-5.26-.65-5.37-2.13a8.14,8.14,0,0,0-1.8-3.91,28.29,28.29,0,0,0-3.1-3.67c-.94-.91-1.87-1.76-2.78-2.55A12.42,12.42,0,0,1,898,50.27,12,12,0,0,1,906.5,46a13.64,13.64,0,0,1,2.69.08,13.72,13.72,0,0,0-.51,5.11,14,14,0,0,0,4.4,9.59q-.33-3-.59-6.31a13.09,13.09,0,0,1,2.45-9A9.67,9.67,0,0,1,930,44.29a13.13,13.13,0,0,1,3.76,8.55q.26,3.39.37,6.33A14,14,0,0,0,937.06,49a13.93,13.93,0,0,0-1.26-5,14.45,14.45,0,0,1,2.64-.48,12.43,12.43,0,0,1,13.35,11.49A11.86,11.86,0,0,1,948.79,64.09ZM925.38,83.81a64.92,64.92,0,0,0,12.48-2c3.42-1,5.1-1.93,5-2.89L944,93.11c.08,1-1.6,1.93-5,2.89a64.92,64.92,0,0,1-12.48,2,64.21,64.21,0,0,1-12.61-.11q-5.25-.66-5.37-2.1l-1.07-14.2q.12,1.5,5.38,2.14A66,66,0,0,0,925.38,83.81Z" transform="translate(339.75 566.51)"/>
    <path class="cls-4" d="M652.42,197.07c-.51.64-1,1.31-1.57,2s-1.23,1.65-2.05,2.83a18.27,18.27,0,0,0-1.94,3.49,6.7,6.7,0,0,0-.61,3c.07,1-1.59,2-5,2.91a66.47,66.47,0,0,1-12.48,2,65.54,65.54,0,0,1-12.64-.08c-3.5-.42-5.3-1.13-5.37-2.13a8.22,8.22,0,0,0-1.8-3.91,29.86,29.86,0,0,0-3.09-3.67c-1-.91-1.87-1.76-2.79-2.55a12.43,12.43,0,0,1,7-21.94,14.35,14.35,0,0,1,2.68.08,13.72,13.72,0,0,0-.51,5.11,14,14,0,0,0,4.4,9.6c-.22-2-.42-4.1-.58-6.32a13.09,13.09,0,0,1,2.44-9,9.66,9.66,0,0,1,15.08-1.13,13,13,0,0,1,3.76,8.55c.17,2.25.3,4.36.37,6.33A15,15,0,0,0,639.43,177a12.93,12.93,0,0,1,2.64-.48A12.43,12.43,0,0,1,655.42,188,11.83,11.83,0,0,1,652.42,197.07ZM629,216.79a64.17,64.17,0,0,0,12.47-2q5.13-1.44,5-2.89l1.07,14.2q.1,1.44-5,2.88a64.17,64.17,0,0,1-12.47,2,63.43,63.43,0,0,1-12.61-.11q-5.26-.66-5.37-2.1L611,214.58q.11,1.5,5.37,2.13A66.06,66.06,0,0,0,629,216.79Z" transform="translate(339.75 566.51)"/>
    <path class="cls-4" d="M969.39,453.72c-.51.64-1,1.31-1.58,2s-1.22,1.65-2,2.83a17.46,17.46,0,0,0-1.94,3.49,6.72,6.72,0,0,0-.62,2.94c.08,1-1.59,2-5,2.92a77.64,77.64,0,0,1-25.11,1.89q-5.26-.63-5.38-2.13a8.18,8.18,0,0,0-1.8-3.91,29.86,29.86,0,0,0-3.09-3.67c-.94-.91-1.87-1.76-2.78-2.55a12.43,12.43,0,0,1,7-21.94,13.54,13.54,0,0,1,2.68.08,15,15,0,0,0,3.9,14.7c-.23-2-.42-4.09-.59-6.31a13.13,13.13,0,0,1,2.44-9,9.67,9.67,0,0,1,15.08-1.14,13.14,13.14,0,0,1,3.77,8.56q.25,3.38.36,6.33a13.94,13.94,0,0,0,2.92-10.15,13.73,13.73,0,0,0-1.27-5,13.6,13.6,0,0,1,2.64-.47,12.43,12.43,0,0,1,13.36,11.48A11.83,11.83,0,0,1,969.39,453.72ZM946,473.44a64.92,64.92,0,0,0,12.48-2c3.42-1,5.09-1.93,5-2.89l1.07,14.19q.11,1.45-5,2.89a75.4,75.4,0,0,1-25.09,1.89q-5.27-.66-5.37-2.1L928,471.23c.08,1,1.87,1.71,5.37,2.13A66.06,66.06,0,0,0,946,473.44Z" transform="translate(339.75 566.51)"/>
    <path class="cls-4" d="M397.59,55.22c-.51.64-1,1.31-1.57,2s-1.23,1.65-2,2.83A18,18,0,0,0,392,63.56a6.69,6.69,0,0,0-.61,2.94q.1,1.5-5,2.92a66.47,66.47,0,0,1-12.48,2,66.35,66.35,0,0,1-12.64-.08c-3.5-.42-5.3-1.13-5.37-2.13a8.22,8.22,0,0,0-1.8-3.91,29.86,29.86,0,0,0-3.09-3.67c-.95-.91-1.87-1.76-2.79-2.55a12.41,12.41,0,0,1-1.47-17.64,12,12,0,0,1,8.52-4.3,13.54,13.54,0,0,1,2.68.08,13.72,13.72,0,0,0-.51,5.11,14,14,0,0,0,4.4,9.59c-.22-2-.42-4.09-.58-6.31a13.08,13.08,0,0,1,2.44-9,9.67,9.67,0,0,1,15.08-1.14A13.14,13.14,0,0,1,382.59,44c.16,2.25.29,4.36.36,6.33a14,14,0,0,0,2.92-10.15,13.94,13.94,0,0,0-1.27-5,13.6,13.6,0,0,1,2.64-.47,12.41,12.41,0,0,1,13.35,11.48A11.83,11.83,0,0,1,397.59,55.22Zm-23.4,19.72a64.94,64.94,0,0,0,12.47-2c3.43-1,5.1-1.93,5-2.89l1.07,14.19q.11,1.45-5,2.89A75.32,75.32,0,0,1,362.65,89q-5.26-.66-5.37-2.1l-1.07-14.19c.07,1,1.86,1.71,5.37,2.13A66.06,66.06,0,0,0,374.19,74.94Z" transform="translate(339.75 566.51)"/>
    <path class="cls-4" d="M203.85,46c-.5.64-1,1.31-1.57,2s-1.22,1.65-2.05,2.83a18.52,18.52,0,0,0-1.94,3.49,6.69,6.69,0,0,0-.61,2.94c.08,1-1.59,2-5,2.92a66.47,66.47,0,0,1-12.48,2,66.35,66.35,0,0,1-12.64-.08q-5.25-.63-5.37-2.13a8.18,8.18,0,0,0-1.8-3.91,29.86,29.86,0,0,0-3.09-3.67q-1.41-1.37-2.79-2.55a12.41,12.41,0,0,1-1.47-17.64,12,12,0,0,1,8.52-4.3,13.54,13.54,0,0,1,2.68.08,13.72,13.72,0,0,0-.51,5.11,14,14,0,0,0,4.4,9.59c-.22-2-.42-4.09-.58-6.31a13.08,13.08,0,0,1,2.44-9,9.67,9.67,0,0,1,15.08-1.14,13.14,13.14,0,0,1,3.77,8.56q.26,3.38.36,6.32A14,14,0,0,0,192.13,31a13.94,13.94,0,0,0-1.27-5,13.6,13.6,0,0,1,2.64-.47A12.41,12.41,0,0,1,206.85,37,11.85,11.85,0,0,1,203.85,46Zm-23.4,19.72a64.94,64.94,0,0,0,12.47-2c3.43-1,5.1-1.93,5-2.89L199,75.06c.07,1-1.6,1.93-5,2.89a64.17,64.17,0,0,1-12.47,2,64.2,64.2,0,0,1-12.61-.11q-5.26-.66-5.37-2.1l-1.07-14.19q.1,1.49,5.37,2.13A66.06,66.06,0,0,0,180.45,65.76Z" transform="translate(339.75 566.51)"/>
    <path class="cls-4" d="M69.72,493.11c-.51.64-1,1.31-1.58,2s-1.22,1.65-2,2.83a18.27,18.27,0,0,0-1.94,3.49,6.73,6.73,0,0,0-.62,2.95q.12,1.49-5,2.91a66.2,66.2,0,0,1-12.48,2,66.26,66.26,0,0,1-12.63-.08q-5.26-.63-5.38-2.13a8.22,8.22,0,0,0-1.8-3.91,29,29,0,0,0-3.09-3.67c-.94-.91-1.87-1.76-2.78-2.55a12.41,12.41,0,0,1-1.47-17.64,12,12,0,0,1,8.51-4.3,14.33,14.33,0,0,1,2.68.08,15.1,15.1,0,0,0,3.9,14.7c-.23-2-.42-4.09-.59-6.31a13.15,13.15,0,0,1,2.44-9,9.66,9.66,0,0,1,15.08-1.13,13,13,0,0,1,3.77,8.55q.26,3.38.37,6.33A14,14,0,0,0,58,478.05a13.78,13.78,0,0,0-1.27-5,13.6,13.6,0,0,1,2.64-.47,12.45,12.45,0,0,1,13.36,11.48A11.83,11.83,0,0,1,69.72,493.11ZM46.31,512.83a64.15,64.15,0,0,0,12.48-2c3.42-1,5.09-1.93,5-2.89l1.07,14.2q.11,1.44-5,2.88a64.15,64.15,0,0,1-12.48,2,63.43,63.43,0,0,1-12.61-.11q-5.26-.66-5.37-2.1l-1.07-14.19q.12,1.5,5.38,2.13A65.94,65.94,0,0,0,46.31,512.83Z" transform="translate(339.75 566.51)"/>
    <path class="cls-2" d="M-88.27,344.43q-3.7,4.35-7.64,9.24t-10,13a84.81,84.81,0,0,0-9.53,16.11q-3.54,8-3.26,13.73.34,7-23.77,13t-58.74,7.65q-34.64,1.67-59.2-2t-24.92-10.68q-.36-7.54-7.93-18.54a135.79,135.79,0,0,0-14-17.59q-6.45-6.6-12.72-12.31-18.54-16.32-19.71-40.8a56.29,56.29,0,0,1,15.07-42.09,56.27,56.27,0,0,1,40.45-19,63.14,63.14,0,0,1,12.56.7,64.56,64.56,0,0,0-3,23.89q1.33,27.86,19.41,45.52-1.2-14-1.94-29.66-1.17-24.21,12.59-42T-210,233.89q20.83-1,36.23,15.35t16.56,40.57q.77,15.88.91,29.71,16.29-19.32,15-47.17a64.86,64.86,0,0,0-5.31-23.5,64.13,64.13,0,0,1,12.44-1.9A56.29,56.29,0,0,1-92.1,262a56.28,56.28,0,0,1,19,40.45A55.59,55.59,0,0,1-88.27,344.43Zm-112.22,89.42q34.5-1.65,58.73-7.78t23.91-12.89l3.21,66.65q.31,6.78-23.92,12.9t-58.73,7.78q-34.5,1.65-59.08-2.12t-24.91-10.55l-3.2-66.65q.35,7,24.92,10.67T-200.49,433.85Z" transform="translate(339.75 566.51)"/>
    <path class="cls-4" d="M557.21,873.81c-.51.64-1,1.31-1.58,2s-1.22,1.65-2,2.83a18.52,18.52,0,0,0-1.94,3.49,6.69,6.69,0,0,0-.61,2.94c.08,1-1.59,2-5,2.92a77.67,77.67,0,0,1-25.12,1.89q-5.25-.63-5.37-2.13a8.18,8.18,0,0,0-1.8-3.91,29.86,29.86,0,0,0-3.09-3.67q-1.41-1.37-2.79-2.55a12.43,12.43,0,0,1,7-21.94,13.54,13.54,0,0,1,2.68.08,13.72,13.72,0,0,0-.51,5.11,14,14,0,0,0,4.41,9.59c-.23-2-.42-4.09-.59-6.31a13.08,13.08,0,0,1,2.44-9A9.67,9.67,0,0,1,538.43,854a13.14,13.14,0,0,1,3.77,8.56q.25,3.38.36,6.33a14,14,0,0,0,2.92-10.15,13.73,13.73,0,0,0-1.27-5,13.6,13.6,0,0,1,2.64-.47,12.41,12.41,0,0,1,13.35,11.48A11.88,11.88,0,0,1,557.21,873.81ZM533.8,893.53a65.19,65.19,0,0,0,12.48-2c3.42-1,5.09-1.93,5-2.89l1.07,14.19c.07,1-1.6,1.93-5,2.89a75.32,75.32,0,0,1-25.08,1.89q-5.26-.66-5.37-2.1l-1.07-14.19c.07,1,1.86,1.71,5.37,2.13A66.06,66.06,0,0,0,533.8,893.53Z" transform="translate(339.75 566.51)"/>
    <path class="cls-4" d="M831.34,815.63c-.51.64-1,1.31-1.57,2s-1.23,1.65-2,2.83a18.27,18.27,0,0,0-1.94,3.49,6.7,6.7,0,0,0-.61,2.95q.11,1.49-5,2.91a66.47,66.47,0,0,1-12.48,2,65.54,65.54,0,0,1-12.64-.08c-3.5-.42-5.3-1.13-5.37-2.13a8.22,8.22,0,0,0-1.8-3.91A29.86,29.86,0,0,0,784.8,822c-.95-.91-1.87-1.76-2.79-2.55a12.43,12.43,0,0,1,7-21.94,14.35,14.35,0,0,1,2.68.08,13.72,13.72,0,0,0-.51,5.11,14,14,0,0,0,4.4,9.59c-.22-2-.42-4.09-.58-6.31a13.09,13.09,0,0,1,2.44-9,9.66,9.66,0,0,1,15.08-1.13,13,13,0,0,1,3.76,8.55c.17,2.25.3,4.36.37,6.33a15,15,0,0,0,1.65-15.12,12.93,12.93,0,0,1,2.64-.48,12.43,12.43,0,0,1,13.35,11.48A11.83,11.83,0,0,1,831.34,815.63Zm-23.4,19.72a64.17,64.17,0,0,0,12.47-2c3.42-1,5.1-1.93,5-2.89l1.07,14.2q.11,1.44-5,2.88a64.17,64.17,0,0,1-12.47,2,63.43,63.43,0,0,1-12.61-.11q-5.26-.66-5.37-2.1L790,833.14q.1,1.5,5.37,2.13A66.06,66.06,0,0,0,807.94,835.35Z" transform="translate(339.75 566.51)"/>
    <path class="cls-3" d="M-209,83.79q-1.32,1.63-2.72,3.47c-.94,1.22-2.11,2.85-3.53,4.88a31.08,31.08,0,0,0-3.34,6,11.38,11.38,0,0,0-1.06,5.08q.19,2.58-8.61,5a114.76,114.76,0,0,1-21.53,3.4,113.71,113.71,0,0,1-21.79-.14q-9.06-1.09-9.26-3.68c-.14-1.84-1.18-4.09-3.11-6.73a48.64,48.64,0,0,0-5.33-6.33c-1.62-1.58-3.23-3-4.8-4.4a20.63,20.63,0,0,1-7.66-14.81A20.73,20.73,0,0,1-296.59,60a20.73,20.73,0,0,1,14.69-7.41,24.14,24.14,0,0,1,4.62.13,23.9,23.9,0,0,0-.87,8.82q.76,10.23,7.59,16.54c-.39-3.43-.72-7.06-1-10.88a22.55,22.55,0,0,1,4.21-15.56,16.54,16.54,0,0,1,12.53-7.24,16.51,16.51,0,0,1,13.47,5.28,22.59,22.59,0,0,1,6.5,14.75q.44,5.83.63,10.91,5.8-7.26,5-17.49a23.67,23.67,0,0,0-2.19-8.58,23.39,23.39,0,0,1,4.56-.83,20.69,20.69,0,0,1,15.62,5.12A20.73,20.73,0,0,1-203.8,68.2,20.54,20.54,0,0,1-209,83.79Zm-40.37,34a111.89,111.89,0,0,0,21.52-3.45q8.85-2.49,8.66-5l1.84,24.48q.19,2.47-8.66,5a111.06,111.06,0,0,1-21.52,3.44,110.5,110.5,0,0,1-21.74-.18q-9.08-1.14-9.27-3.63L-280.35,114q.19,2.58,9.27,3.68A113.2,113.2,0,0,0-249.34,117.79Z" transform="translate(339.75 566.51)"/>
    <path class="cls-3" d="M-230.4,628c-.88,1.09-1.78,2.25-2.72,3.47s-2.11,2.85-3.52,4.88a31.15,31.15,0,0,0-3.35,6,11.66,11.66,0,0,0-1.06,5.08q.2,2.58-8.61,5a114.51,114.51,0,0,1-21.52,3.4,113.7,113.7,0,0,1-21.79-.14q-9.07-1.1-9.27-3.68c-.14-1.84-1.17-4.09-3.1-6.73a50.88,50.88,0,0,0-5.33-6.33c-1.63-1.58-3.23-3-4.81-4.4a20.57,20.57,0,0,1-7.65-14.81A20.69,20.69,0,0,1-318,604.15a20.71,20.71,0,0,1,14.68-7.41,23.47,23.47,0,0,1,4.63.14,23.63,23.63,0,0,0-.88,8.81q.78,10.23,7.6,16.54-.58-5.15-1-10.88a22.67,22.67,0,0,1,4.21-15.56,16.58,16.58,0,0,1,12.54-7.24,16.55,16.55,0,0,1,13.47,5.28,22.64,22.64,0,0,1,6.5,14.75q.43,5.83.63,10.92,5.79-7.28,5-17.5a23.67,23.67,0,0,0-2.18-8.58,23.43,23.43,0,0,1,4.55-.83,20.74,20.74,0,0,1,15.63,5.12,20.68,20.68,0,0,1,7.4,14.68A20.45,20.45,0,0,1-230.4,628Zm-40.37,34a111.76,111.76,0,0,0,21.52-3.45q8.85-2.49,8.66-5l1.85,24.48q.18,2.47-8.66,5a111.89,111.89,0,0,1-21.52,3.45,111.28,111.28,0,0,1-21.75-.19q-9.07-1.14-9.26-3.63l-1.85-24.48q.19,2.58,9.27,3.68A113.22,113.22,0,0,0-270.77,662Z" transform="translate(339.75 566.51)"/>
    <path class="cls-4" d="M-69.42,168.55c-.51.63-1,1.3-1.57,2s-1.23,1.66-2.05,2.83A18.27,18.27,0,0,0-75,176.88a6.73,6.73,0,0,0-.61,3c.07,1-1.59,2-5,2.91a66.12,66.12,0,0,1-12.48,2,66.26,66.26,0,0,1-12.63-.08q-5.26-.64-5.37-2.14a8.15,8.15,0,0,0-1.8-3.9,29.13,29.13,0,0,0-3.09-3.67q-1.42-1.38-2.79-2.55a11.92,11.92,0,0,1-4.44-8.59,12,12,0,0,1,3-9.06,12,12,0,0,1,8.51-4.29,13.61,13.61,0,0,1,2.69.07,13.77,13.77,0,0,0-.51,5.12,14,14,0,0,0,4.4,9.59c-.22-2-.42-4.1-.59-6.31a13.12,13.12,0,0,1,2.45-9,9.57,9.57,0,0,1,7.26-4.2,9.58,9.58,0,0,1,7.82,3.06,13.11,13.11,0,0,1,3.76,8.55q.25,3.39.37,6.33a14,14,0,0,0,2.91-10.14,13.93,13.93,0,0,0-1.26-5,13.64,13.64,0,0,1,2.64-.48,12,12,0,0,1,9.06,3,12,12,0,0,1,4.29,8.51A11.87,11.87,0,0,1-69.42,168.55Zm-23.41,19.72a64.92,64.92,0,0,0,12.48-2q5.13-1.46,5-2.89l1.06,14.19c.08,1-1.6,1.92-5,2.89a64.92,64.92,0,0,1-12.48,2,64.1,64.1,0,0,1-12.6-.11q-5.26-.66-5.38-2.11l-1.07-14.19q.12,1.5,5.38,2.13A65.88,65.88,0,0,0-92.83,188.27Z" transform="translate(339.75 566.51)"/>
    <path class="cls-4" d="M-77.29,560.88c-.51.64-1,1.31-1.58,2s-1.22,1.65-2,2.83a18,18,0,0,0-1.94,3.49,6.72,6.72,0,0,0-.62,2.94c.08,1-1.59,2-5,2.92a66.2,66.2,0,0,1-12.48,2,66.25,66.25,0,0,1-12.63-.08q-5.27-.63-5.38-2.13a8.18,8.18,0,0,0-1.8-3.91,29.86,29.86,0,0,0-3.09-3.67c-.94-.91-1.87-1.76-2.78-2.55a11.92,11.92,0,0,1-4.44-8.58,12,12,0,0,1,3-9.06,12,12,0,0,1,8.51-4.3,13.54,13.54,0,0,1,2.68.08,13.93,13.93,0,0,0-.5,5.11,13.91,13.91,0,0,0,4.4,9.59c-.23-2-.42-4.09-.59-6.31a13.13,13.13,0,0,1,2.44-9,9.59,9.59,0,0,1,7.27-4.2,9.61,9.61,0,0,1,7.81,3.06,13.14,13.14,0,0,1,3.77,8.56q.26,3.38.37,6.32A13.94,13.94,0,0,0-89,545.82a13.73,13.73,0,0,0-1.27-5,13.6,13.6,0,0,1,2.64-.47,12,12,0,0,1,9.06,3,12,12,0,0,1,4.3,8.52A11.85,11.85,0,0,1-77.29,560.88ZM-100.7,580.6a64.92,64.92,0,0,0,12.48-2c3.42-1,5.09-1.93,5-2.89l1.07,14.19c.07,1-1.6,1.93-5,2.89a64.15,64.15,0,0,1-12.48,2,64.2,64.2,0,0,1-12.61-.11q-5.26-.66-5.37-2.1l-1.07-14.19q.12,1.49,5.37,2.13A66.06,66.06,0,0,0-100.7,580.6Z" transform="translate(339.75 566.51)"/>
    <path class="cls-2" d="M337,401.08q-3.7,4.37-7.64,9.25t-9.95,13a84.81,84.81,0,0,0-9.53,16.11q-3.52,8-3.26,13.73.35,7-23.77,13t-58.74,7.65q-34.63,1.67-59.2-2T140,461.18q-.36-7.56-7.93-18.54A136,136,0,0,0,118,425q-6.45-6.6-12.72-12.3-18.54-16.33-19.71-40.81a58.28,58.28,0,0,1,55.52-61.12,63.9,63.9,0,0,1,12.56.7,65,65,0,0,0-3,23.89Q152,363.26,170,380.92q-1.19-14-1.94-29.65-1.17-24.22,12.59-42t34.59-18.76q20.84-1,36.23,15.36t16.56,40.56q.76,15.89.91,29.71,16.29-19.32,15-47.17a64.76,64.76,0,0,0-5.31-23.49,64.29,64.29,0,0,1,12.44-1.91,58.3,58.3,0,0,1,61.12,55.52A55.59,55.59,0,0,1,337,401.08ZM224.74,490.51q34.5-1.67,58.73-7.78t23.91-12.9l3.21,66.66q.32,6.76-23.91,12.89t-58.74,7.78q-34.5,1.65-59.08-2.12T144,544.49l-3.21-66.65q.34,7,24.92,10.68T224.74,490.51Z" transform="translate(339.75 566.51)"/>
    <path class="cls-3" d="M299.69-152c-.87,1.09-1.78,2.25-2.71,3.47s-2.11,2.85-3.53,4.88a31.08,31.08,0,0,0-3.34,6,11.38,11.38,0,0,0-1.06,5.08q.19,2.58-8.62,5a113.69,113.69,0,0,1-21.52,3.4,113.71,113.71,0,0,1-21.79-.14q-9.06-1.09-9.26-3.67-.21-2.78-3.11-6.74a50,50,0,0,0-5.33-6.33c-1.63-1.58-3.23-3-4.8-4.4a20.58,20.58,0,0,1-7.66-14.8,20.74,20.74,0,0,1,5.12-15.63,20.68,20.68,0,0,1,14.69-7.4,22.62,22.62,0,0,1,4.62.13,23.87,23.87,0,0,0-.87,8.81q.76,10.23,7.59,16.55c-.39-3.44-.73-7.06-1-10.89a22.56,22.56,0,0,1,4.21-15.56,16.57,16.57,0,0,1,12.53-7.24,16.57,16.57,0,0,1,13.47,5.28,22.61,22.61,0,0,1,6.5,14.75q.44,5.84.63,10.92,5.81-7.28,5-17.5a23.72,23.72,0,0,0-2.19-8.58,23.39,23.39,0,0,1,4.56-.83,20.73,20.73,0,0,1,15.62,5.12,20.73,20.73,0,0,1,7.41,14.69A20.48,20.48,0,0,1,299.69-152Zm-40.36,34a110.24,110.24,0,0,0,21.51-3.45q8.85-2.49,8.67-5l1.84,24.48q.19,2.49-8.66,5a111.76,111.76,0,0,1-21.52,3.45,111.19,111.19,0,0,1-21.74-.19q-9.08-1.14-9.27-3.63l-1.84-24.47q.19,2.58,9.27,3.67A113.2,113.2,0,0,0,259.33-118Z" transform="translate(339.75 566.51)"/>
    <path class="cls-3" d="M28.33-314.78c-.88,1.09-1.78,2.25-2.72,3.47s-2.1,2.85-3.52,4.88a31.7,31.7,0,0,0-3.35,6,11.66,11.66,0,0,0-1.06,5.08q.2,2.58-8.61,5a113.69,113.69,0,0,1-21.52,3.4A113.7,113.7,0,0,1-34.24-287q-9.07-1.09-9.27-3.67c-.13-1.85-1.17-4.1-3.1-6.74a50.88,50.88,0,0,0-5.33-6.33c-1.63-1.58-3.23-3-4.8-4.4A20.54,20.54,0,0,1-64.4-323a20.69,20.69,0,0,1,5.12-15.62A20.73,20.73,0,0,1-44.6-346a23.47,23.47,0,0,1,4.63.14,23.84,23.84,0,0,0-.88,8.81q.78,10.23,7.6,16.54-.59-5.14-1-10.88A22.62,22.62,0,0,1-30-347a16.54,16.54,0,0,1,12.53-7.24A16.57,16.57,0,0,1-4-348.93a22.59,22.59,0,0,1,6.5,14.75q.44,5.83.63,10.92,5.79-7.28,5-17.5a23.67,23.67,0,0,0-2.19-8.58,23.43,23.43,0,0,1,4.55-.83A20.74,20.74,0,0,1,26.1-345a20.68,20.68,0,0,1,7.4,14.68A20.45,20.45,0,0,1,28.33-314.78Zm-40.37,34a111.76,111.76,0,0,0,21.52-3.45q8.85-2.49,8.67-5L20-264.73q.2,2.48-8.66,5a111.89,111.89,0,0,1-21.52,3.45,111.3,111.3,0,0,1-21.75-.19q-9.07-1.14-9.26-3.63L-43-284.6q.2,2.6,9.26,3.68A113.22,113.22,0,0,0-12-280.78Z" transform="translate(339.75 566.51)"/>
    <path class="cls-3" d="M612.68-330.08c-.88,1.1-1.79,2.25-2.72,3.48s-2.11,2.85-3.53,4.88a31.62,31.62,0,0,0-3.34,6,11.63,11.63,0,0,0-1.06,5.08q.19,2.58-8.61,5a113.62,113.62,0,0,1-21.52,3.41,114.52,114.52,0,0,1-21.79-.14q-9.08-1.1-9.27-3.68-.21-2.78-3.1-6.73a49.44,49.44,0,0,0-5.33-6.33q-2.45-2.37-4.81-4.4A20.59,20.59,0,0,1,520-338.28a20.67,20.67,0,0,1,5.12-15.62,20.71,20.71,0,0,1,14.68-7.41,23.44,23.44,0,0,1,4.63.13,23.69,23.69,0,0,0-.88,8.82q.78,10.23,7.59,16.54-.57-5.15-1-10.88a22.6,22.6,0,0,1,4.21-15.56,16.56,16.56,0,0,1,12.53-7.24,16.54,16.54,0,0,1,13.48,5.28,22.62,22.62,0,0,1,6.5,14.75q.44,5.84.63,10.91,5.79-7.26,5-17.49a24,24,0,0,0-2.18-8.59,24,24,0,0,1,4.55-.82,20.7,20.7,0,0,1,15.63,5.12,20.7,20.7,0,0,1,7.4,14.68A20.46,20.46,0,0,1,612.68-330.08Zm-40.37,34a111.76,111.76,0,0,0,21.52-3.45q8.85-2.49,8.66-5L604.34-280q.18,2.49-8.67,5a110.24,110.24,0,0,1-21.51,3.45,110.59,110.59,0,0,1-21.75-.18q-9.07-1.16-9.26-3.63l-1.85-24.48q.19,2.58,9.27,3.68A114,114,0,0,0,572.31-296.07Z" transform="translate(339.75 566.51)"/>
    <path class="cls-4" d="M727.29-170c-.51.64-1,1.31-1.58,2s-1.22,1.65-2,2.83a18.27,18.27,0,0,0-1.94,3.49,6.7,6.7,0,0,0-.61,3c.07,1-1.59,2-5,2.91a66.2,66.2,0,0,1-12.48,2A66.26,66.26,0,0,1,691-153.9q-5.26-.63-5.37-2.13a8.22,8.22,0,0,0-1.8-3.91,29,29,0,0,0-3.1-3.67c-.94-.91-1.87-1.76-2.78-2.55a11.92,11.92,0,0,1-4.44-8.58,12,12,0,0,1,3-9.06,12,12,0,0,1,8.51-4.3,14.46,14.46,0,0,1,2.69.08,13.72,13.72,0,0,0-.51,5.11,14,14,0,0,0,4.4,9.59q-.33-3-.59-6.31a13.15,13.15,0,0,1,2.45-9,9.63,9.63,0,0,1,7.26-4.2,9.62,9.62,0,0,1,7.82,3.07,13.09,13.09,0,0,1,3.76,8.55q.26,3.38.37,6.33A14,14,0,0,0,715.56-185a14,14,0,0,0-1.26-5,13.6,13.6,0,0,1,2.64-.47,12,12,0,0,1,9.06,3,12,12,0,0,1,4.29,8.51A11.83,11.83,0,0,1,727.29-170Zm-23.41,19.72a64.15,64.15,0,0,0,12.48-2c3.42-1,5.1-1.93,5-2.89l1.07,14.2c.08,1-1.6,1.92-5,2.88a64.15,64.15,0,0,1-12.48,2,63.33,63.33,0,0,1-12.6-.11q-5.26-.66-5.38-2.1l-1.07-14.19q.12,1.5,5.38,2.13A66,66,0,0,0,703.88-150.27Z" transform="translate(339.75 566.51)"/>
    <path class="cls-4" d="M725-472.2c-.51.64-1,1.31-1.58,2s-1.22,1.65-2,2.83a17.74,17.74,0,0,0-1.94,3.49,6.73,6.73,0,0,0-.62,2.95c.08,1-1.59,2-5,2.91a66.33,66.33,0,0,1-12.48,2,66.24,66.24,0,0,1-12.63-.08q-5.26-.63-5.38-2.13a8.22,8.22,0,0,0-1.8-3.91,29.86,29.86,0,0,0-3.09-3.67c-.94-.91-1.87-1.76-2.78-2.55a11.92,11.92,0,0,1-4.44-8.58,12,12,0,0,1,3-9.06,12,12,0,0,1,8.51-4.3,14.35,14.35,0,0,1,2.68.08,13.72,13.72,0,0,0-.51,5.11,14,14,0,0,0,4.41,9.59c-.23-2-.42-4.09-.59-6.31a13.09,13.09,0,0,1,2.44-9,9.59,9.59,0,0,1,7.27-4.2,9.62,9.62,0,0,1,7.81,3.06,13.14,13.14,0,0,1,3.77,8.56q.25,3.38.36,6.33a14,14,0,0,0,2.92-10.15,13.78,13.78,0,0,0-1.27-5,13.6,13.6,0,0,1,2.64-.47,12,12,0,0,1,9.06,3,12,12,0,0,1,4.3,8.51A11.87,11.87,0,0,1,725-472.2Zm-23.41,19.72a64.92,64.92,0,0,0,12.48-2c3.42-1,5.09-1.93,5-2.89l1.07,14.2q.11,1.44-5,2.88a64.15,64.15,0,0,1-12.48,2,63.43,63.43,0,0,1-12.61-.11q-5.27-.66-5.37-2.1l-1.07-14.19c.07,1,1.87,1.71,5.37,2.13A66.06,66.06,0,0,0,701.61-452.48Z" transform="translate(339.75 566.51)"/>
    <path class="cls-4" d="M-178.35-198.51c-.51.63-1,1.3-1.57,2s-1.23,1.66-2.05,2.83a18.27,18.27,0,0,0-1.94,3.49,6.73,6.73,0,0,0-.61,3c.07,1-1.59,2-5,2.91a65.39,65.39,0,0,1-12.48,2,66.35,66.35,0,0,1-12.63-.07q-5.26-.65-5.37-2.14a8.15,8.15,0,0,0-1.8-3.9,27.62,27.62,0,0,0-3.1-3.67c-.94-.92-1.87-1.77-2.78-2.55a11.92,11.92,0,0,1-4.44-8.59,12,12,0,0,1,3-9.06,12,12,0,0,1,8.51-4.29,13.61,13.61,0,0,1,2.69.07,13.77,13.77,0,0,0-.51,5.12,14,14,0,0,0,4.4,9.59c-.22-2-.42-4.1-.59-6.31a13.12,13.12,0,0,1,2.45-9,9.57,9.57,0,0,1,7.26-4.2,9.58,9.58,0,0,1,7.82,3.06,13.09,13.09,0,0,1,3.76,8.55q.26,3.39.37,6.33a14,14,0,0,0,2.91-10.14,13.93,13.93,0,0,0-1.26-5,12.93,12.93,0,0,1,2.64-.48,12,12,0,0,1,9.06,3,12,12,0,0,1,4.29,8.51A11.87,11.87,0,0,1-178.35-198.51Zm-23.41,19.71a63.4,63.4,0,0,0,12.48-2c3.42-1,5.1-1.92,5-2.88l1.07,14.19c.08,1-1.6,1.92-5,2.89a64.92,64.92,0,0,1-12.48,2,64.1,64.1,0,0,1-12.6-.11c-3.51-.44-5.3-1.15-5.38-2.11L-219.74-181q.12,1.5,5.38,2.13A65.15,65.15,0,0,0-201.76-178.8Z" transform="translate(339.75 566.51)"/>
    <path class="cls-4" d="M-206.77-453.34c-.51.64-1,1.31-1.58,2s-1.22,1.65-2,2.83a17.74,17.74,0,0,0-1.94,3.49,6.73,6.73,0,0,0-.62,2.95c.08,1-1.59,2-5,2.91a66.2,66.2,0,0,1-12.48,2,65.42,65.42,0,0,1-12.63-.08q-5.26-.63-5.38-2.13a8.22,8.22,0,0,0-1.8-3.91,29.86,29.86,0,0,0-3.09-3.67c-.94-.91-1.87-1.76-2.78-2.55a11.92,11.92,0,0,1-4.44-8.58,12,12,0,0,1,3-9.06,12,12,0,0,1,8.51-4.3,14.35,14.35,0,0,1,2.68.08,13.93,13.93,0,0,0-.51,5.11,14,14,0,0,0,4.41,9.59c-.23-2-.42-4.09-.59-6.31a13.15,13.15,0,0,1,2.44-9,9.65,9.65,0,0,1,7.27-4.2,9.6,9.6,0,0,1,7.81,3.07,13.1,13.1,0,0,1,3.77,8.55q.25,3.38.36,6.33a13.94,13.94,0,0,0,2.92-10.15,13.78,13.78,0,0,0-1.27-5,13.6,13.6,0,0,1,2.64-.47,12,12,0,0,1,9.06,3,12,12,0,0,1,4.3,8.51A11.83,11.83,0,0,1-206.77-453.34Zm-23.41,19.72a64.15,64.15,0,0,0,12.48-2c3.42-1,5.09-1.93,5-2.89l1.07,14.2q.11,1.44-5,2.88a64.15,64.15,0,0,1-12.48,2,63.43,63.43,0,0,1-12.61-.11q-5.26-.66-5.37-2.1l-1.07-14.19q.12,1.5,5.37,2.13A66.06,66.06,0,0,0-230.18-433.62Z" transform="translate(339.75 566.51)"/>
    <path class="cls-4" d="M108.29-543.62c-.51.63-1,1.3-1.57,2s-1.23,1.66-2,2.83a18.27,18.27,0,0,0-1.94,3.49,6.73,6.73,0,0,0-.61,2.95c.07,1-1.59,2-5,2.91a65.39,65.39,0,0,1-12.48,2A65.53,65.53,0,0,1,72-527.53q-5.26-.65-5.37-2.14a8.15,8.15,0,0,0-1.8-3.9,27.62,27.62,0,0,0-3.1-3.67c-.94-.92-1.87-1.77-2.78-2.55a11.92,11.92,0,0,1-4.44-8.59,12,12,0,0,1,3-9.06A12,12,0,0,1,66-561.73a13.61,13.61,0,0,1,2.69.07,13.77,13.77,0,0,0-.51,5.12,14,14,0,0,0,4.4,9.59c-.22-2-.42-4.1-.59-6.31a13.12,13.12,0,0,1,2.45-9,9.57,9.57,0,0,1,7.26-4.2,9.58,9.58,0,0,1,7.82,3.06,13.09,13.09,0,0,1,3.76,8.55q.25,3.39.37,6.33a14,14,0,0,0,2.91-10.14,13.93,13.93,0,0,0-1.26-5,12.93,12.93,0,0,1,2.64-.48,12,12,0,0,1,9.06,3,12,12,0,0,1,4.29,8.51A11.87,11.87,0,0,1,108.29-543.62ZM84.88-523.91a63.4,63.4,0,0,0,12.48-2c3.42-1,5.1-1.92,5-2.88l1.07,14.19c.08,1-1.6,1.92-5,2.89a64.92,64.92,0,0,1-12.48,2,64.1,64.1,0,0,1-12.6-.11c-3.51-.44-5.3-1.15-5.38-2.11L66.9-526.12q.12,1.5,5.38,2.13A65.15,65.15,0,0,0,84.88-523.91Z" transform="translate(339.75 566.51)"/>
    <path class="cls-4" d="M147-247.92c-.51.64-1,1.31-1.58,2s-1.22,1.65-2.05,2.83a17.91,17.91,0,0,0-1.93,3.49,6.57,6.57,0,0,0-.62,2.94c.08,1-1.59,2-5,2.92a66.47,66.47,0,0,1-12.48,2,66.35,66.35,0,0,1-12.64-.08q-5.25-.63-5.37-2.13a8.18,8.18,0,0,0-1.8-3.91,29.86,29.86,0,0,0-3.09-3.67q-1.41-1.36-2.79-2.55a11.94,11.94,0,0,1-4.43-8.58,12,12,0,0,1,3-9.06,12,12,0,0,1,8.52-4.3,13.54,13.54,0,0,1,2.68.08,13.72,13.72,0,0,0-.51,5.11,14,14,0,0,0,4.41,9.59c-.23-2-.42-4.09-.59-6.31a13.08,13.08,0,0,1,2.44-9,9.59,9.59,0,0,1,7.27-4.2,9.62,9.62,0,0,1,7.81,3.06,13.14,13.14,0,0,1,3.77,8.56q.25,3.38.36,6.33A14,14,0,0,0,135.28-263a13.73,13.73,0,0,0-1.27-5,13.6,13.6,0,0,1,2.64-.47,12,12,0,0,1,9.06,3,12,12,0,0,1,4.29,8.52A11.88,11.88,0,0,1,147-247.92ZM123.6-228.2a65.05,65.05,0,0,0,12.48-2c3.42-1,5.09-1.93,5-2.89l1.07,14.19q.11,1.46-5,2.89a64.28,64.28,0,0,1-12.48,2,64.2,64.2,0,0,1-12.61-.11q-5.27-.66-5.37-2.1l-1.07-14.19c.07,1,1.86,1.71,5.37,2.13A66.06,66.06,0,0,0,123.6-228.2Z" transform="translate(339.75 566.51)"/>
    <path class="cls-4" d="M477.27-207.38c-.51.63-1,1.3-1.58,2s-1.22,1.66-2,2.83a18.34,18.34,0,0,0-1.94,3.5,6.72,6.72,0,0,0-.62,2.94c.08,1-1.59,2-5,2.91a65.32,65.32,0,0,1-12.48,2,66.25,66.25,0,0,1-12.63-.08q-5.26-.65-5.38-2.13a8.14,8.14,0,0,0-1.8-3.91,29.13,29.13,0,0,0-3.09-3.67c-.94-.91-1.87-1.76-2.78-2.55a11.92,11.92,0,0,1-4.44-8.59,12,12,0,0,1,3-9.06,12,12,0,0,1,8.51-4.29,13.54,13.54,0,0,1,2.68.08,13.93,13.93,0,0,0-.5,5.11,13.93,13.93,0,0,0,4.4,9.59c-.23-2-.42-4.09-.59-6.31a13.12,13.12,0,0,1,2.44-9,9.59,9.59,0,0,1,7.27-4.2,9.61,9.61,0,0,1,7.81,3.06,13.14,13.14,0,0,1,3.77,8.55q.25,3.39.36,6.33a13.93,13.93,0,0,0,2.92-10.14,13.73,13.73,0,0,0-1.27-5,14.45,14.45,0,0,1,2.64-.48,12,12,0,0,1,9.06,3,12,12,0,0,1,4.3,8.52A11.86,11.86,0,0,1,477.27-207.38Zm-23.41,19.72a64.92,64.92,0,0,0,12.48-2q5.13-1.46,5-2.89l1.07,14.19c.07,1-1.6,1.93-5,2.89a64.92,64.92,0,0,1-12.48,2,64.2,64.2,0,0,1-12.61-.11q-5.26-.66-5.37-2.1l-1.07-14.2q.12,1.5,5.37,2.14A66.06,66.06,0,0,0,453.86-187.66Z" transform="translate(339.75 566.51)"/>
    <path class="cls-2" d="M1013.73-296.53q-3.62,4.42-7.47,9.38T996.57-274a84.8,84.8,0,0,0-9.23,16.3q-3.37,8.06-3,13.78.46,7-23.53,13.47t-58.58,8.76q-34.59,2.33-59.23-.86t-25.11-10.2q-.51-7.54-8.29-18.39a135.87,135.87,0,0,0-14.35-17.32q-6.59-6.48-13-12.06-18.84-16-20.48-40.43a56.31,56.31,0,0,1,14.27-42.37,56.36,56.36,0,0,1,40.08-19.8,64.08,64.08,0,0,1,12.57.47,64.89,64.89,0,0,0-2.57,23.94q1.86,27.84,20.27,45.15-1.47-14-2.51-29.62-1.62-24.18,11.8-42.2T890-404.74q20.81-1.41,36.51,14.66t17.33,40.24q1.07,15.87,1.47,29.69,15.93-19.62,14.06-47.45A64.78,64.78,0,0,0,953.58-391a63.83,63.83,0,0,1,12.4-2.13,56.22,56.22,0,0,1,42.36,14.27,56.24,56.24,0,0,1,19.8,40.07A55.65,55.65,0,0,1,1013.73-296.53ZM903.23-205q34.46-2.31,58.57-8.89t23.66-13.34l4.47,66.58q.45,6.75-23.66,13.34t-58.58,8.89q-34.46,2.31-59.11-1t-25.1-10.07L819-216.07q.48,7,25.12,10.2T903.23-205Z" transform="translate(339.75 566.51)"/>
  </g>
</svg>
